<svg width="24" height="24" viewBox="0 0 24 24" fill="none" xmlns="http://www.w3.org/2000/svg">
<path d="M21.4327 14.7727C22.0754 9.33638 21.1344 5.88547 19.459 4.3491C16.7508 1.65456 7.6393 1.27638 4.38029 4.46728C2.93439 6.00365 2.42947 8.27274 2.36062 11.0855C2.29176 13.8982 2.24586 19.1691 6.99668 20.6109V22.7855C6.99668 22.7855 6.97373 23.6836 7.52455 23.8491C8.14422 24.0855 8.44258 23.66 10.3934 21.2491C12.4245 21.4483 14.4737 21.2884 16.4524 20.7764C17.095 20.54 20.8131 20.0436 21.4327 14.7727ZM10.7147 19.7364C10.7147 19.7364 8.64914 22.36 8.00652 23.0455C7.77701 23.2818 7.5475 23.2818 7.57045 22.8091V19.2164C3.53111 18.0346 3.78357 13.5436 3.82947 11.18C3.87537 8.81638 4.28848 6.92547 5.50488 5.60183C8.35078 2.83638 16.3606 3.45092 18.4262 5.43638C20.9278 7.70547 20.0327 14.1582 20.0327 14.3709C19.5278 18.7673 16.4983 19.0509 15.9475 19.24C14.2466 19.6834 12.4876 19.843 10.7377 19.7127L10.7147 19.7364Z" fill="#77C3C3"/>
<path d="M11.8623 6.09821C11.8054 6.11565 11.7556 6.15154 11.7201 6.20051C11.6847 6.24949 11.6655 6.30894 11.6655 6.37002C11.6655 6.43111 11.6847 6.49056 11.7201 6.53954C11.7556 6.58851 11.8054 6.62439 11.8623 6.64184C14.4787 6.66548 16.636 8.53275 16.659 12.0073C16.659 12.0763 16.6856 12.1424 16.7329 12.1911C16.7803 12.2399 16.8445 12.2673 16.9115 12.2673C16.9784 12.2673 17.0426 12.2399 17.09 12.1911C17.1373 12.1424 17.1639 12.0763 17.1639 12.0073C17.141 8.27275 14.777 6.12184 11.8623 6.09821Z" fill="#77C3C3"/>
<path d="M15.3049 11.44C15.3049 11.5089 15.3315 11.5751 15.3788 11.6238C15.4262 11.6726 15.4904 11.7 15.5574 11.7C15.6243 11.7 15.6885 11.6726 15.7359 11.6238C15.7832 11.5751 15.8098 11.5089 15.8098 11.44C15.8557 9.38363 14.6393 7.70545 12.3213 7.51636C12.2636 7.5311 12.212 7.56468 12.1744 7.61208C12.1368 7.65948 12.115 7.71816 12.1124 7.77934C12.1098 7.84052 12.1266 7.90092 12.1601 7.95151C12.1936 8.00209 12.2421 8.04015 12.2983 8.05999C14.2951 8.22545 15.3508 9.61999 15.282 11.4164L15.3049 11.44ZM14.7541 13.7564C14.589 13.6459 14.3903 13.6017 14.1957 13.6322C14.001 13.6628 13.8241 13.7658 13.6983 13.9218L13.3082 14.4182C13.2395 14.4976 13.1543 14.5601 13.0589 14.601C12.9636 14.6419 12.8605 14.6602 12.7574 14.6545C10.118 13.9454 9.40654 11.1091 9.40654 11.1091C9.39735 10.9955 9.41321 10.8812 9.45296 10.7747C9.4927 10.6683 9.55529 10.5725 9.63605 10.4945L10.0951 10.0927C10.2424 9.94952 10.3367 9.75796 10.3619 9.55093C10.387 9.3439 10.3413 9.13432 10.2328 8.95818C9.8606 8.26877 9.42235 7.61948 8.92458 7.01999C8.81955 6.87893 8.6669 6.78363 8.49687 6.75299C8.32685 6.72234 8.15185 6.75859 8.00654 6.85454C7.22622 7.32727 6.39999 8.17818 6.65245 9.05272C7.11146 9.97454 7.93769 12.9291 10.6 15.1745C11.8393 16.2145 13.8131 17.3018 14.6623 17.5382C15.4885 17.8454 16.2688 16.9473 16.7279 16.12C16.8131 15.964 16.8437 15.7826 16.8144 15.6061C16.7852 15.4296 16.6979 15.2689 16.5672 15.1509C16.0155 14.6176 15.4073 14.1498 14.7541 13.7564Z" fill="#77C3C3"/>
<path d="M12.6886 9.54913C13.5377 9.5964 13.9509 10.0455 13.9738 10.9673C13.9738 11.0394 14.0016 11.1085 14.0511 11.1595C14.1006 11.2105 14.1677 11.2391 14.2377 11.2391C14.3077 11.2391 14.3749 11.2105 14.4244 11.1595C14.4739 11.1085 14.5017 11.0394 14.5017 10.9673C14.4328 9.73822 13.8131 9.0764 12.7115 9.00549C12.6538 9.02023 12.6023 9.05381 12.5646 9.10121C12.527 9.14861 12.5052 9.20729 12.5026 9.26847C12.5001 9.32965 12.5168 9.39005 12.5503 9.44064C12.5838 9.49123 12.6323 9.52929 12.6886 9.54913Z" fill="#77C3C3"/>
</svg>
