<svg width="64" height="68" viewBox="0 0 64 68" fill="none" xmlns="http://www.w3.org/2000/svg">
<g clip-path="url(#clip0)">
<path d="M29.7238 4.5127C27.8494 4.5127 26.2873 6.01692 26.2873 7.91933C26.2873 9.82174 27.8047 11.326 29.7238 11.326C31.643 11.326 33.1604 9.82174 33.1604 7.91933C33.1158 6.06117 31.5983 4.55694 29.7238 4.5127ZM29.7238 9.06962C29.099 9.06962 28.5635 8.58296 28.5635 7.91933C28.5635 7.29994 29.0544 6.76904 29.7238 6.76904C30.3933 6.76904 30.8842 7.2557 30.8842 7.91933C30.8396 8.53872 30.3487 9.06962 29.7238 9.06962Z" fill="#60ACD4"/>
<path d="M58.2873 41.9415H54.8954C54.2706 41.9415 53.735 42.4281 53.735 43.0918C53.735 43.7554 54.2259 44.2421 54.8954 44.2421H58.3319C58.9568 44.2421 59.4923 43.7554 59.4923 43.0918C59.4923 42.4281 58.9568 41.9415 58.2873 41.9415Z" fill="#60ACD4"/>
<path d="M58.2873 46.4541H54.8954C54.2706 46.4541 53.735 46.9408 53.735 47.6044C53.735 48.268 54.2259 48.7547 54.8954 48.7547H58.3319C58.9568 48.7547 59.4923 48.268 59.4923 47.6044C59.4923 46.9408 58.9568 46.4541 58.2873 46.4541Z" fill="#60ACD4"/>
<path d="M58.2873 51.0111H54.8954C54.2706 51.0111 53.735 51.4977 53.735 52.1614C53.735 52.825 54.2259 53.3117 54.8954 53.3117H58.3319C58.9568 53.3117 59.4923 52.825 59.4923 52.1614C59.4923 51.4977 58.9568 51.0111 58.2873 51.0111Z" fill="#60ACD4"/>
<path d="M58.2873 55.5237H54.8954C54.2706 55.5237 53.735 56.0104 53.735 56.674C53.735 57.2934 54.2259 57.8243 54.8954 57.8243H58.3319C58.9568 57.8243 59.4923 57.3377 59.4923 56.674C59.4477 56.0547 58.9568 55.5237 58.2873 55.5237Z" fill="#60ACD4"/>
<path d="M58.2873 60.0807H54.8954C54.2706 60.0807 53.735 60.5673 53.735 61.231C53.735 61.8504 54.2259 62.3813 54.8954 62.3813H58.3319C58.9568 62.3813 59.4923 61.8946 59.4923 61.231C59.4477 60.5673 58.9568 60.0807 58.2873 60.0807Z" fill="#60ACD4"/>
<path d="M10.3098 64.5934C11.4702 64.5934 12.6306 64.4164 13.7464 64.0182V64.5934C13.7464 66.4515 15.2638 68 17.1829 68C18.1648 68 19.1467 67.5576 19.7715 66.8055C21.9137 67.6018 24.1899 68 26.466 68H32.9821C35.6153 68 38.2485 67.4691 40.6585 66.4515C41.7296 67.4691 43.1132 68 44.586 68H58.2875C61.4563 68 64.0002 65.4782 64.0002 62.337V44.1978C64.0002 40.7912 62.2596 37.5615 59.3587 35.7033C61.5455 34.4645 62.3489 31.7215 61.0992 29.5537C60.6529 28.8016 60.0281 28.1822 59.2694 27.784C59.3587 27.4301 59.4033 27.0319 59.4033 26.6779C59.4033 24.5986 58.109 22.6962 55.9667 21.5459V16.9889C55.9667 14.4671 53.9137 12.4763 51.4144 12.4763C50.6557 12.4763 49.9416 12.6532 49.2722 13.0072C46.5944 5.22056 39.2303 0 30.9291 0H28.4744C18.2987 0 9.8189 7.83084 9.10481 17.918L7.23033 44.6402C1.78542 46.3214 -1.24945 52.0286 0.44651 57.3819C1.78542 61.6734 5.80216 64.5934 10.3098 64.5934ZM18.2987 64.5934C18.2987 65.2128 17.8077 65.7437 17.1383 65.7437C16.4688 65.7437 15.9779 65.257 15.9779 64.5934V44.1978C15.9779 43.5784 16.4688 43.0475 17.1383 43.0475C17.8077 43.0475 18.2987 43.5342 18.2987 44.1978V64.5934ZM20.5748 48.799C20.7533 48.7547 20.9765 48.7547 21.155 48.7547C22.5386 48.7547 23.8328 49.8165 24.5469 51.4535C24.7255 51.8517 25.1271 52.1171 25.5734 52.1171H30.8398C32.0895 52.1171 33.116 53.1347 33.116 54.3735C33.116 55.6122 32.0895 56.6298 30.8398 56.6298H25.6181C25.1718 56.6298 24.7701 56.8953 24.5916 57.2934C23.8775 58.9746 22.5386 59.9922 21.1997 59.9922C21.0211 59.9922 20.798 59.9922 20.6195 59.948V48.799H20.5748ZM61.7241 44.1978V62.337C61.7241 64.1952 60.2066 65.7437 58.2875 65.7437H44.586C42.7115 65.7437 41.1494 64.2394 41.1494 62.337V44.1978C41.1494 39.8178 44.7199 36.2785 49.1383 36.2785H53.6906C58.1536 36.2785 61.7241 39.8178 61.7241 44.1978ZM57.1718 33.9779H45.7464C44.4967 33.9779 43.4702 32.9603 43.4702 31.7215C43.4702 30.4828 44.4967 29.4652 45.7464 29.4652H57.1718C58.4214 29.4652 59.4479 30.4828 59.4479 31.7215C59.4479 32.9603 58.4214 33.9779 57.1718 33.9779ZM51.4591 14.7326C52.7087 14.7326 53.7352 15.7502 53.7352 16.9889V22.2095C53.7352 22.6519 54.003 23.0501 54.4047 23.2271C56.1006 23.9349 57.1271 25.2622 57.1271 26.5895C57.1271 26.7664 57.1271 26.9876 57.0825 27.1646H45.791C45.7464 26.9876 45.7464 26.7664 45.7464 26.5895C45.7464 25.218 46.8175 23.9349 48.4688 23.2271C48.8705 23.0501 49.1383 22.6519 49.1383 22.2095V16.9889C49.1829 15.7502 50.1648 14.7326 51.4591 14.7326ZM11.381 18.095C11.8719 11.1048 16.6473 5.08783 23.4312 3.00846C20.7087 6.41509 21.2889 11.4144 24.7255 14.1132C24.904 14.2459 25.0379 14.3787 25.2164 14.4671C19.4144 16.9005 16.692 23.581 19.1913 29.3325C21.646 35.0839 28.3851 37.7827 34.1871 35.3051C39.9891 32.8718 42.7115 26.1913 40.2122 20.4398C38.427 16.2811 34.2764 13.5381 29.6794 13.5381C26.5107 13.5381 23.9667 11.0163 23.9667 7.87508C23.9667 4.7339 26.5553 2.25634 29.7241 2.25634H30.9291C34.8119 2.25634 38.5609 3.53936 41.5957 5.92843C44.4521 8.18478 46.5051 11.2817 47.487 14.7768C47.0853 15.4405 46.9068 16.2368 46.9068 16.9889V21.5016C44.7645 22.6519 43.4702 24.5543 43.4702 26.6337C43.4702 26.9876 43.5149 27.3858 43.6041 27.7398C41.3726 28.9343 40.5246 31.6773 41.7296 33.8894C42.1313 34.6415 42.7561 35.2609 43.5149 35.7033C40.6139 37.5615 38.8733 40.7469 38.8733 44.1978V62.337C38.8733 63.0891 39.0072 63.8412 39.3196 64.5491C37.3112 65.3455 35.169 65.7437 32.9821 65.7437H26.4214C24.413 65.7437 22.4493 65.3897 20.5748 64.7261C20.5748 64.6818 20.5748 64.6376 20.5748 64.5934V62.2928C20.7533 62.2928 20.9765 62.337 21.155 62.337C23.2527 62.337 25.1718 61.054 26.3321 58.9304H30.8844C33.4284 58.9304 35.4368 56.8953 35.4368 54.4177C35.4368 51.8959 33.3838 49.905 30.8844 49.905H26.3321C25.1718 47.7814 23.2527 46.4984 21.155 46.4984C20.9765 46.4984 20.7533 46.4984 20.5748 46.5426V44.242C20.5748 42.3839 19.0574 40.8354 17.1383 40.8354C15.2192 40.8354 13.7017 42.3396 13.7017 44.242V44.8172C12.586 44.419 11.4256 44.242 10.2652 44.242C10.042 44.242 9.77427 44.242 9.55111 44.2863L11.381 18.095ZM29.7241 15.8829C34.7673 15.8829 38.8733 19.9532 38.8733 24.9525C38.8733 29.9519 34.7673 34.0221 29.7241 34.0221C24.6808 34.0221 20.5748 29.9519 20.5748 24.9525C20.5748 19.9089 24.6808 15.8829 29.7241 15.8829ZM10.3098 46.4541C11.5149 46.4541 12.6752 46.7196 13.7464 47.2062V49.8608C11.2024 48.0026 7.63201 48.4893 5.75753 50.9668C3.88305 53.4886 4.37399 57.028 6.87329 58.8861C8.92629 60.3904 11.6934 60.3904 13.7464 58.8861V61.5407C9.77427 63.3988 4.99881 61.7176 3.0797 57.7801C1.1606 53.8426 2.90118 49.1087 6.87329 47.2062C7.94442 46.7196 9.10481 46.4541 10.3098 46.4541ZM13.7017 54.3735C13.7017 56.2316 12.1843 57.7801 10.2652 57.7801C8.34609 57.7801 6.82866 56.2759 6.82866 54.3735C6.82866 52.471 8.34609 50.9668 10.2652 50.9668C12.1843 51.0111 13.7017 52.5153 13.7017 54.3735Z" fill="#60ACD4"/>
</g>
<defs>
<clipPath id="clip0">
<rect width="64" height="68" fill="white"/>
</clipPath>
</defs>
</svg>
