<svg id="Layer_1" data-name="Layer 1" xmlns="http://www.w3.org/2000/svg" viewBox="0 0 180 180"><defs><style>.cls-1{fill:#60acd4;}</style></defs><title>illustration</title><path class="cls-1" d="M49.47,133.45l-.42,16.94a13.57,13.57,0,0,0,13.22,13.88l52.52,1.28a13.56,13.56,0,0,0,13.87-13.21l1.74-71.12a17.9,17.9,0,0,0-5.74-13.58,9.72,9.72,0,0,0-3.19-18.81l-3-.07c-3.47-5.41-11.85-8.66-16.14-9.68a2,2,0,0,1-.41-.14c-.18-.9,1.12-3.64,1.69-4.82A19,19,0,0,0,105,30.85a13.94,13.94,0,0,0,.44-3.07,13.55,13.55,0,1,0-27.09-.66,14.09,14.09,0,0,0,.29,3.08,18.26,18.26,0,0,0,1.18,3.33c.51,1.22,1.68,4,1.45,4.91a2.39,2.39,0,0,1-.42.12c-4.33.8-12.86,3.64-16.59,8.87l-3-.07A9.73,9.73,0,0,0,57.18,66a17.88,17.88,0,0,0-6.39,13.27l-.89,36.42Zm5.64-17.63.5-20.67,13.1.32a2.6,2.6,0,0,0,.12-5.2L55.74,90,56,79.4A12.72,12.72,0,0,1,69,67l43.77,1.07a12.72,12.72,0,0,1,12.4,13l-1.73,71.12a8.37,8.37,0,0,1-8.55,8.14l-52.52-1.29a8.35,8.35,0,0,1-8.13-8.54l.41-16.94Zm61.77-61.89h0l4.45.11a4.51,4.51,0,0,1,4.4,4.62,4.53,4.53,0,0,1-4.62,4.4L60.94,61.59a4.51,4.51,0,0,1,.22-9l4.46.11h0Zm-15.71-9.78a29.8,29.8,0,0,1,10,4.43l-39.47-1A29.43,29.43,0,0,1,81.8,43.68a5.45,5.45,0,0,0,4-2.72c1.54-2.85,0-6.51-1.22-9.44a17.5,17.5,0,0,1-.87-2.33,8.18,8.18,0,0,1-.19-2,8.34,8.34,0,0,1,16.68.41,9,9,0,0,1-.29,1.93,17.43,17.43,0,0,1-1,2.29c-1.37,2.87-3.07,6.44-1.67,9.37A5.44,5.44,0,0,0,101.17,44.15Z"/><path class="cls-1" d="M97.74,85.38,82.39,85a2.61,2.61,0,0,0-.13,5.21l15.35.38a2.61,2.61,0,0,0,.13-5.21Z"/><path class="cls-1" d="M97.74,102.89l-15.35-.38a2.61,2.61,0,0,0-.13,5.21l15.35.37a2.6,2.6,0,1,0,.13-5.2Z"/><path class="cls-1" d="M97.74,120.39,82.39,120a2.6,2.6,0,1,0-.13,5.2l15.35.38a2.58,2.58,0,0,0,1.86-.72,2.6,2.6,0,0,0-1.73-4.49Z"/><path class="cls-1" d="M97.74,137.9l-15.35-.38a2.61,2.61,0,0,0-.13,5.21l15.35.38a2.61,2.61,0,1,0,.13-5.21Z"/></svg>