<svg id="Layer_1" data-name="Layer 1" xmlns="http://www.w3.org/2000/svg" viewBox="0 0 180 180"><defs><style>.cls-1{fill:#a465dd;}</style></defs><title>illustration</title><path class="cls-1" d="M74.24,130.86,72.35,82.45A20.06,20.06,0,0,1,76.2,69.91l1.36-1.84A29.37,29.37,0,0,0,83.3,50.62l0-29.11c0-2.14-3.08-7-8.16-7a8.23,8.23,0,0,0-3.64.78,7.65,7.65,0,0,0-2.38,1.78A8.33,8.33,0,0,0,57.22,17a7.54,7.54,0,0,0-5.9-2.47,7.8,7.8,0,0,0-5.67,2.28,7.64,7.64,0,0,0-2.28,4.73v7.93a1.69,1.69,0,0,0,0,.23h0V50.6A29.41,29.41,0,0,0,49.08,68l1.37,1.88a20,20,0,0,1,3.81,12.65l-3.61,75.77c0,6.71,6.13,12.64,12.83,12.22a12.47,12.47,0,0,0,11.8-13l-.68-17.51ZM70,140.1l.69,17.52a7.76,7.76,0,1,1-15.5.75l3-62.36H68.31l1.37,35Zm8.7-89.48a24.77,24.77,0,0,1-4.86,14.75l-1.35,1.84a24.5,24.5,0,0,0-4.73,15.42l.34,8.81H58.41l.41-8.74a24.54,24.54,0,0,0-4.67-15.55l-1.37-1.88A24.87,24.87,0,0,1,48,50.59v-23h0V21.64a3.35,3.35,0,0,1,3.38-2.57c2.22,0,2.89,1.23,3.49,2.71,0,.09.07.18.11.26V46.92a2.29,2.29,0,0,0,4.57,0v-25c.73-2,1.86-2.86,3.63-2.87h0c1.78,0,2.91.89,3.65,2.87v25a2.29,2.29,0,0,0,4.57,0V22.09c0-.05,0-.11.08-.16.65-1.45,1.48-2.86,3.72-2.86s3.38,2.11,3.59,2.64Z"/><path class="cls-1" d="M123.36,70c-2,3-4.75,7.68-4.56,12.59l.34,8.81h-9.72l.42-8.74c.27-5.72-3.2-11-6.48-15.51a35.2,35.2,0,0,1-6.21-20.77c.49-12.25,8.43-27.28,17-27.35h.07c8.73,0,16.84,15,17.37,27.38a31.79,31.79,0,0,1-1,9.43,33.18,33.18,0,0,1-4.08,9.19Zm7.44-3.32A33.2,33.2,0,0,0,134,60.31a36.64,36.64,0,0,0,2.18-14.05h0c-.62-14.73-10.33-31.76-21.93-31.76h-.11c-5.52.05-10.9,3.92-15.16,10.9a45.4,45.4,0,0,0-6.35,20.84,39.63,39.63,0,0,0,7,23.53l0,.07c2.83,3.89,5.83,8.39,5.63,12.65l-3.61,75.77v.2a12.54,12.54,0,0,0,4.06,8.77,12.14,12.14,0,0,0,8.25,3.26h.52a12.48,12.48,0,0,0,11.81-13l-2.93-75c-.14-3.58,2.09-7.34,3.79-9.87ZM119.32,96l2.41,61.61a7.89,7.89,0,0,1-7.43,8.29,7.57,7.57,0,0,1-5.48-2,8,8,0,0,1-2.59-5.5l3-62.36Z"/></svg>