<svg width="104" height="136" viewBox="0 0 104 136" fill="none" xmlns="http://www.w3.org/2000/svg">
<g clip-path="url(#clip0)">
<path d="M71.1 54.2C71.1 66.7 81.3 76.8 93.8 76.8C97.2 76.8 100.5 76 103.5 74.6V103.5H68.6H68.5C68.4 103.5 68.3 103.5 68.2 103.5C68.1 103.5 68 103.5 67.9 103.6C67.8 103.6 67.7 103.7 67.6 103.7C67.3 103.8 67 103.9 66.8 104.1C66.5 104.3 66.2 104.6 66 105C65.9 105.1 65.9 105.2 65.8 105.3C65.7 105.4 65.7 105.5 65.7 105.6C65.6 105.8 65.6 106 65.5 106.2C65.5 106.4 65.4 106.6 65.4 106.8C65.4 106.9 65.4 107 65.4 107.1C65.4 107.2 65.4 107.3 65.4 107.4C65.4 107.5 65.4 107.6 65.5 107.7C65.5 107.8 65.5 107.9 65.6 108C65.6 108.1 65.7 108.2 65.7 108.2C65.7 108.3 65.8 108.4 65.8 108.5C65.8 108.6 65.9 108.7 66 108.7C66.1 108.8 66.1 108.9 66.2 108.9C68.9 111.9 70.3 115.7 70.3 119.7C70.3 128.6 63.1 135.9 54.1 135.9C45.2 135.9 37.9 128.7 37.9 119.7C37.9 115.7 39.4 111.9 42 108.9L42.1 108.8C42.2 108.7 42.2 108.7 42.3 108.6C42.4 108.5 42.4 108.4 42.4 108.4C42.4 108.4 42.4 108.4 42.4 108.3C42.5 108.2 42.5 108.1 42.5 108C42.5 107.9 42.6 107.9 42.6 107.8C42.6 107.7 42.6 107.7 42.7 107.6C42.7 107.5 42.7 107.4 42.8 107.3C42.8 107.2 42.8 107.1 42.8 107C42.8 106.9 42.8 106.8 42.8 106.7C42.8 106.2 42.7 105.8 42.5 105.4C42 104.2 40.9 103.4 39.5 103.4H0V3.2C0 1.4 1.4 0 3.2 0H103.5V33.8C100.5 32.4 97.1 31.6 93.7 31.6C81.2 31.6 71.1 41.7 71.1 54.2Z" fill="#FFE5B9"/>
</g>
<defs>
<clipPath id="clip0">
<rect width="103.5" height="135.9" fill="white"/>
</clipPath>
</defs>
</svg>
