<svg width="104" height="136" viewBox="0 0 104 136" fill="none" xmlns="http://www.w3.org/2000/svg">
<g clip-path="url(#clip0)">
<path d="M103.5 32.4V132.7C103.5 134.5 102.1 135.9 100.3 135.9H0V102.2C3 103.6 6.3 104.4 9.7 104.4C15.3 104.4 20.7 102.3 24.9 98.6C34.2 90.2 34.9 75.9 26.6 66.6C22.1 61.6 16 59.1 9.8 59.1C6.5 59.1 3.1 59.8 0.1 61.3V32.4H35C35.2 32.4 35.4 32.4 35.6 32.3C35.6 32.3 35.6 32.3 35.7 32.3C35.7 32.3 35.7 32.3 35.8 32.3C35.9 32.3 35.9 32.3 36 32.3C36.1 32.3 36.2 32.2 36.3 32.2C36.5 32.1 36.6 32.1 36.8 32C36.9 31.9 37 31.9 37.1 31.8C37.2 31.7 37.3 31.7 37.3 31.6C37.5 31.5 37.6 31.3 37.8 31.1C37.9 30.9 38 30.7 38.1 30.5C38.2 30.3 38.2 30.2 38.3 30C38.3 29.9 38.3 29.9 38.3 29.9C38.3 29.8 38.3 29.8 38.3 29.7V29.6C38.3 29.5 38.3 29.4 38.3 29.3C38.3 29.2 38.3 29.1 38.3 29C38.3 28.9 38.3 28.8 38.3 28.7C38.3 28.6 38.3 28.5 38.2 28.4C38.2 28.3 38.2 28.3 38.1 28.2C38.1 28.1 38.1 28.1 38 28C38 28 38 28 38 27.9C38 27.8 38 27.8 37.9 27.7C37.8 27.6 37.8 27.4 37.7 27.3L37.6 27.2L37.5 27.1C37.5 27.1 37.5 27.1 37.5 27C34.8 24 33.4 20.2 33.4 16.2C33.2 7.2 40.4 0 49.3 0C58.2 0 65.5 7.2 65.5 16.2C65.5 20.2 64 24 61.4 27C61.4 27 61.4 27 61.3 27.1L61.2 27.2C61.2 27.3 61.1 27.3 61.1 27.4C61.1 27.4 61.1 27.4 61.1 27.5C61.1 27.6 61 27.6 61 27.7C61 27.7 61 27.8 60.9 27.8L60.8 27.9C60.8 28 60.7 28 60.7 28.1C60.7 28.2 60.6 28.3 60.6 28.4C60.6 28.5 60.6 28.6 60.5 28.7C60.5 28.8 60.5 28.9 60.5 29C60.5 29.1 60.5 29.2 60.5 29.3C60.5 30.2 60.9 31 61.4 31.6C61.5 31.7 61.7 31.8 61.8 32C61.9 32.1 62.1 32.2 62.3 32.3C62.5 32.4 62.6 32.4 62.8 32.5C63 32.6 63.2 32.6 63.4 32.6C63.5 32.6 63.6 32.6 63.7 32.6H103.5V32.4Z" fill="#BBE1E1"/>
</g>
<defs>
<clipPath id="clip0">
<rect width="103.5" height="135.9" fill="white"/>
</clipPath>
</defs>
</svg>
