<svg width="136" height="104" viewBox="0 0 136 104" fill="none" xmlns="http://www.w3.org/2000/svg">
<g clip-path="url(#clip0)">
<path d="M135.9 49.3C135.9 58.2 128.7 65.5 119.7 65.5C115.7 65.5 111.9 64 108.9 61.4L108.8 61.3C108.6 61.1 108.3 60.9 108 60.8C107.9 60.8 107.8 60.7 107.7 60.7C107.6 60.7 107.5 60.6 107.4 60.6C107.2 60.6 107 60.5 106.8 60.5C106.6 60.5 106.4 60.5 106.2 60.6C106 60.6 105.8 60.7 105.7 60.7C105.6 60.7 105.5 60.8 105.5 60.8C105.4 60.8 105.3 60.9 105.3 60.9C105.2 61 105 61.1 104.9 61.2C104.8 61.3 104.7 61.3 104.7 61.4L104.6 61.5L104.5 61.6C104.4 61.7 104.4 61.8 104.3 61.8C104.2 61.9 104.2 62 104.2 62C104.2 62 104.2 62 104.2 62.1C104.2 62.2 104.1 62.2 104.1 62.3C104.1 62.3 104.1 62.4 104 62.4C104 62.5 103.9 62.6 103.9 62.7C103.9 62.8 103.8 62.9 103.8 63C103.8 63.1 103.8 63.2 103.8 63.3C103.8 63.4 103.8 63.5 103.8 63.6V103.4H3.2C1.4 103.4 0 102 0 100.2V0H33.8C32.4 3 31.6 6.4 31.6 9.8C31.6 22.3 41.8 32.4 54.2 32.4C59.8 32.4 65.2 30.3 69.4 26.6C77 19.7 78.9 8.8 74.7 0H103.6V34.9C103.6 35.1 103.6 35.3 103.6 35.4V35.5C103.6 35.6 103.6 35.6 103.6 35.7V35.8C103.6 35.9 103.6 35.9 103.7 36C103.7 36.1 103.8 36.1 103.8 36.2C103.8 36.3 103.9 36.4 103.9 36.5C103.9 36.5 103.9 36.5 103.9 36.6C103.9 36.6 103.9 36.6 103.9 36.7C103.9 36.8 104 36.8 104 36.9C104 37 104.1 37 104.2 37.1C104.3 37.2 104.3 37.2 104.4 37.3C104.4 37.3 104.5 37.3 104.5 37.4L104.6 37.5L104.7 37.6L104.8 37.7L104.9 37.8C105 37.8 105 37.9 105.1 37.9H105.2C105.3 37.9 105.4 38 105.5 38C105.6 38 105.6 38 105.7 38.1H105.8C106.1 38.2 106.4 38.2 106.7 38.2C106.8 38.2 106.9 38.2 107 38.2H107.1C107.3 38.2 107.4 38.1 107.6 38.1C107.6 38.1 107.7 38.1 107.7 38C107.8 38 107.9 37.9 108 37.9C108.1 37.9 108.2 37.8 108.3 37.7C108.4 37.7 108.5 37.6 108.5 37.5L108.6 37.4C111.5 34.7 115.4 33.2 119.4 33.3C128.7 33.2 135.9 40.4 135.9 49.3Z" fill="#C7E7F8"/>
</g>
<defs>
<clipPath id="clip0">
<rect width="135.9" height="103.5" fill="white"/>
</clipPath>
</defs>
</svg>
