<svg width="20" height="20" viewBox="0 0 20 20" fill="none" xmlns="http://www.w3.org/2000/svg">
<path d="M17.2908 10L18.2108 8.41001C18.3214 8.21871 18.3515 7.99133 18.2944 7.77786C18.2374 7.5644 18.0979 7.38232 17.9067 7.27167L16.315 6.35167V4.51834C16.315 4.29733 16.2272 4.08537 16.0709 3.92909C15.9146 3.7728 15.7027 3.68501 15.4817 3.68501H13.6492L12.73 2.09417C12.619 1.90327 12.4373 1.76376 12.2242 1.70584C12.1185 1.67719 12.0081 1.6698 11.8996 1.6841C11.791 1.69841 11.6863 1.73412 11.5917 1.78917L10 2.70917L8.40833 1.78834C8.21693 1.67784 7.98948 1.64789 7.776 1.70509C7.56252 1.76229 7.38051 1.90195 7.27 2.09334L6.35 3.68501H4.5175C4.29648 3.68501 4.08452 3.7728 3.92824 3.92909C3.77196 4.08537 3.68417 4.29733 3.68417 4.51834V6.35084L2.0925 7.27084C1.99753 7.32547 1.91428 7.39833 1.84755 7.48523C1.78082 7.57212 1.73192 7.67135 1.70366 7.77721C1.67539 7.88306 1.66832 7.99346 1.68285 8.10206C1.69739 8.21065 1.73323 8.31531 1.78833 8.41001L2.70833 10L1.78833 11.59C1.67832 11.7815 1.64848 12.0087 1.7053 12.2221C1.76212 12.4355 1.901 12.6178 2.09167 12.7292L3.68333 13.6492V15.4817C3.68333 15.7027 3.77113 15.9146 3.92741 16.0709C4.08369 16.2272 4.29565 16.315 4.51667 16.315H6.35L7.27 17.9067C7.34377 18.0328 7.44911 18.1375 7.57565 18.2106C7.70218 18.2836 7.84556 18.3225 7.99167 18.3233C8.13667 18.3233 8.28083 18.285 8.40916 18.2108L9.99916 17.2908L11.5908 18.2108C11.7822 18.3212 12.0095 18.3511 12.2229 18.2941C12.4363 18.2371 12.6184 18.0978 12.7292 17.9067L13.6483 16.315H15.4808C15.7018 16.315 15.9138 16.2272 16.0701 16.0709C16.2264 15.9146 16.3142 15.7027 16.3142 15.4817V13.6492L17.9058 12.7292C18.0006 12.6744 18.0837 12.6014 18.1503 12.5145C18.2169 12.4276 18.2658 12.3284 18.294 12.2226C18.3223 12.1168 18.3294 12.0065 18.315 11.898C18.3005 11.7894 18.2649 11.6848 18.21 11.59L17.2908 10ZM7.91583 5.82501C8.24746 5.82512 8.56547 5.95696 8.79989 6.19154C9.03431 6.42612 9.16594 6.74421 9.16583 7.07584C9.16572 7.40747 9.03388 7.72548 8.7993 7.9599C8.56472 8.19432 8.24663 8.32595 7.915 8.32584C7.58337 8.32573 7.26536 8.19388 7.03094 7.95931C6.79652 7.72473 6.66489 7.40664 6.665 7.07501C6.66511 6.74338 6.79695 6.42537 7.03153 6.19095C7.26611 5.95653 7.5842 5.8249 7.91583 5.82501ZM8.16583 13.825L6.8325 12.8258L11.8325 6.15917L13.1658 7.15834L8.16583 13.825ZM12.0825 14.1583C11.9183 14.1583 11.7557 14.1259 11.604 14.063C11.4523 14.0001 11.3145 13.908 11.1984 13.7918C11.0824 13.6757 10.9903 13.5378 10.9275 13.3861C10.8647 13.2343 10.8324 13.0717 10.8325 12.9075C10.8326 12.7433 10.865 12.5807 10.9278 12.429C10.9907 12.2773 11.0829 12.1395 11.199 12.0235C11.3152 11.9074 11.4531 11.8153 11.6048 11.7525C11.7565 11.6897 11.9191 11.6575 12.0833 11.6575C12.415 11.6576 12.733 11.7895 12.9674 12.024C13.2018 12.2586 13.3334 12.5767 13.3333 12.9083C13.3332 13.24 13.2014 13.558 12.9668 13.7924C12.7322 14.0268 12.4141 14.1585 12.0825 14.1583Z" fill="#FF6846"/>
</svg>
