<svg width="69" height="70" viewBox="0 0 69 70" fill="none" xmlns="http://www.w3.org/2000/svg">
<path d="M68.4233 40.8066C68.5463 36.4355 65.5511 32.8435 61.6121 32.2376V30.0737C61.6121 24.0581 57.2628 19.1677 51.9287 19.1677C46.7588 19.1677 42.4095 23.9282 42.2454 29.7707H42.3274H42.2454V53.4004C42.2454 60.974 36.8703 67.0762 30.3053 67.0762C23.7403 67.0762 18.3653 60.9308 18.3653 53.4004V51.3664C20.0065 51.3664 21.7709 50.1113 21.7709 46.5625V43.5331C29.0744 41.5856 34.2853 34.9641 34.2853 27.477V27.3472C34.2853 26.0056 33.2596 24.9669 32.0286 24.9669L31.9876 9.34362C31.9876 6.444 30.0181 3.97717 27.3101 3.45784C26.6536 1.33722 24.3558 0.341834 22.3863 1.46706C21.2374 2.1595 20.5399 3.54439 20.704 4.97256C20.9913 7.30956 23.1249 8.65117 25.1354 7.95873C26.0791 7.61251 26.8587 6.87678 27.228 5.88139C28.7051 6.31417 29.6899 7.69906 29.6899 9.30034L29.7309 24.9236C28.4589 24.9236 27.4742 26.0056 27.4742 27.3039V27.4337C27.3921 31.5884 24.7251 35.2237 20.9092 36.3922C18.8576 37.0847 16.683 37.0847 14.6725 36.3922C10.8566 35.2237 7.40996 31.6317 7.32789 27.4337V27.3472C7.32789 26.0056 6.30212 24.9669 5.07118 24.9669H4.74293V9.3869C4.74293 7.78562 5.76871 6.35745 7.28686 5.92467C7.94336 7.74234 9.83079 8.65117 11.5541 8.04528C13.3595 7.39612 14.3442 5.2755 13.6877 3.37128C13.0312 1.42378 10.9797 0.471667 9.21533 1.20739C8.27161 1.59689 7.53305 2.41917 7.2048 3.45784C4.45571 3.93389 2.48622 6.444 2.44519 9.34362V24.9236C1.21425 24.9236 0.188477 26.0056 0.188477 27.3472V27.4337C0.188477 34.9208 5.39943 41.5423 12.703 43.5331V46.5625C12.703 50.1113 14.4673 51.3664 16.1086 51.3664V53.4004C16.1086 62.2724 22.4684 69.4998 30.3053 69.4998C38.1423 69.4998 44.5021 62.2724 44.5021 53.4004V29.814C44.6252 25.2698 47.9487 21.548 51.8877 21.548C55.9498 21.548 59.2733 25.3564 59.2733 30.0737V32.2376C54.924 32.8867 51.8877 37.1712 52.5442 41.7587C53.2007 46.6058 57.6321 49.8516 62.2686 48.7264C65.7562 47.8609 68.3412 44.5718 68.4233 40.8066ZM24.2738 5.70828C23.4531 5.88139 22.7966 5.14567 22.9197 4.28011C23.0018 3.80406 23.3711 3.41456 23.8224 3.328C24.643 3.15489 25.2995 3.89061 25.1764 4.75617C25.0944 5.23223 24.7251 5.62173 24.2738 5.70828ZM10.2001 3.37128C11.0207 3.19817 11.6772 3.93389 11.5541 4.79945C11.472 5.2755 11.1028 5.665 10.6514 5.75156C9.83079 5.92467 9.1743 5.18895 9.29739 4.32339C9.37945 3.84734 9.74873 3.45784 10.2001 3.37128ZM2.44519 27.4337V27.3472H5.03015V27.477C5.11221 32.6704 9.21533 37.2578 13.9749 38.7292C16.4778 39.5515 19.1449 39.5515 21.6067 38.7292C26.3663 37.2578 29.6488 32.7136 29.7309 27.477V27.3472H31.9876V27.4337C31.9876 34.0985 27.1049 39.9843 20.3758 41.4125C18.8166 41.7587 17.1754 41.8452 15.5752 41.6721C15.0417 41.6289 14.5083 41.5423 14.016 41.4125C7.32789 39.9843 2.44519 34.0985 2.44519 27.4337ZM16.1086 48.9428C15.0828 48.9428 14.9597 47.255 14.9597 46.5625V44.0091C15.1648 44.0524 15.37 44.0524 15.5752 44.0957C16.1086 44.139 16.642 44.1823 17.2164 44.1823H17.2574C17.7908 44.1823 18.3242 44.139 18.8987 44.0957C19.1038 44.0957 19.309 44.0524 19.5141 44.0091V46.5625C19.5141 47.2983 19.391 48.9428 18.3653 48.9428H16.1086ZM60.4632 46.5193C57.0987 46.5193 54.4316 43.4465 54.8009 39.8545C55.0881 37.128 57.1807 34.8775 59.8067 34.5746C63.2533 34.1851 66.1255 36.9981 66.1255 40.5469C66.1665 43.836 63.6226 46.5193 60.4632 46.5193ZM60.4632 36.9549C58.5758 36.9549 57.0576 38.5561 57.0576 40.5469C57.0576 42.5377 58.5758 44.139 60.4632 44.139C62.3506 44.139 63.8688 42.5377 63.8688 40.5469C63.8688 38.5561 62.3506 36.9549 60.4632 36.9549ZM60.4632 41.7154C59.8477 41.7154 59.3143 41.1961 59.3143 40.5036C59.3143 39.8545 59.8067 39.2919 60.4632 39.2919C61.0787 39.2919 61.6121 39.8112 61.6121 40.5036C61.6121 41.1961 61.0787 41.7154 60.4632 41.7154Z" fill="#FE9F00"/>
</svg>
